#!OML:ASF F:\VICON\USERDATA\INSTALL\rory3\rory3.ASF
:FULLY-SPECIFIED
:DEGREES
826
root -2.03002 28.4917 -9.19952 -182.748 -181.48 181.258
lowerback 12.3907 1.31868 -6.7725
upperback 3.11301 0.801396 -2.09089
thorax -3.73139 0.439586 1.5012
lowerneck -9.22519 0.232449 -5.05847
upperneck 31.7129 -0.0718888 5.10334
head 11.8789 -0.00263023 2.79905
rclavicle 2.5842e-015 -1.59028e-015
rhumerus -28.9772 5.25259 -85.1714
rradius 40.3793
rwrist 11.5458
rhand -24.0708 3.05833
rfingers 7.12502
rthumb 2.40902 -26.9078
lclavicle 2.5842e-015 -1.59028e-015
lhumerus -30.7358 23.6311 71.2995
lradius 26.0092
lwrist -0.188515
lhand -23.5064 23.3302
lfingers 7.12502
lthumb 2.95404 53.2895
rfemur -29.6498 10.2973 13.4748
rtibia 41.7854
rfoot 7.52615 -5.85961
rtoes -5.35046
lfemur -19.2782 10.2991 -25.9931
ltibia 53.6914
lfoot -29.6157 10.3113
ltoes 3.54612
827
root -2.02569 28.4514 -9.1677 -182.927 -181.472 181.306
lowerback 12.407 1.89071 -6.27183
upperback 2.77744 1.60787 -1.93957
thorax -4.14709 0.85031 1.24513
lowerneck -7.35744 -0.270673 -6.43315
upperneck 31.3414 -0.804647 5.81822
head 11.4007 -0.416087 3.19659
rclavicle 3.67752e-014 -3.18055e-014
rhumerus -30.3351 3.91004 -84.0307
rradius 40.6853
rwrist 11.1238
rhand -23.8739 2.96404
rfingers 7.12502
rthumb 2.59914 -26.9999
lclavicle 3.67752e-014 -3.18055e-014
lhumerus -31.1198 22.3078 72.1456
lradius 25.7759
lwrist -0.594828
lhand -23.5072 23.0083
lfingers 7.12502
lthumb 2.95328 52.9676
rfemur -29.3858 10.6792 13.4549
rtibia 40.8424
rfoot 8.2738 -5.98268
rtoes -5.26218
lfemur -19.2274 9.9895 -26.0902
ltibia 54.2533
lfoot -30.1406 10.5258
ltoes 3.3706
828
root -2.02403 28.4106 -9.13679 -183.05 -181.401 181.105
lowerback 12.4025 1.94474 -6.09621
upperback 2.77231 1.70309 -1.9135
thorax -4.15277 0.895822 1.1588
lowerneck -7.04397 -0.294206 -6.1811
upperneck 31.164 -0.85788 5.67348
head 11.2702 -0.429322 3.08375
rclavicle 1.56046e-014 -2.8625e-014
rhumerus -30.5255 3.81774 -84.111
rradius 40.7666
rwrist 10.7465
rhand -23.7803 2.72228
rfingers 7.12502
rthumb 2.68958 -27.2405
lclavicle 1.56046e-014 -2.8625e-014
lhumerus -31.1204 22.4341 71.856
lradius 25.5476
lwrist -0.925247
lhand -23.5976 22.5699
lfingers 7.12502
lthumb 2.86595 52.5304
rfemur -29.199 11.1194 13.737
rtibia 39.9523
rfoot 8.93462 -6.27346
rtoes -5.17793
lfemur -19.267 9.75817 -25.9124
ltibia 54.8456
lfoot -30.6206 10.7598
ltoes 3.4979
829
root -2.02117 28.3663 -9.10456 -183.196 -181.354 180.983
lowerback 12.4723 2.01185 -5.98255
upperback 2.78524 1.80479 -1.83876
thorax -4.18334 0.94548 1.15518
lowerneck -6.82826 -0.304294 -6.09478
upperneck 30.978 -0.842131 5.4945
head 11.153 -0.432689 2.99655
rclavicle -6.95746e-016 2.3059e-014
rhumerus -30.716 3.69016 -84.0356
rradius 40.8727
rwrist 10.7201
rhand -23.9096 2.70844
rfingers 7.12502
rthumb 2.56469 -27.2559
lclavicle -6.95746e-016 2.3059e-014
lhumerus -31.0775 22.477 71.7819
lradius 25.4097
lwrist -1.01374
lhand -23.5604 22.5767
lfingers 7.12502
lthumb 2.90194 52.5367
rfemur -28.9712 11.4897 13.9487
rtibia 39.1144
rfoot 9.32145 -6.67177
rtoes -4.47555
lfemur -19.2763 9.51989 -25.836
ltibia 55.4304
lfoot -31.0925 11.1278
ltoes 3.27218
830
root -2.01411 28.3252 -9.06905 -183.324 -181.308 181.077
lowerback 12.4436 2.07422 -6.01439
upperback 2.86661 1.88982 -1.83027
thorax -4.08859 0.98432 1.17053
lowerneck -6.79994 -0.31256 -6.24219
upperneck 30.8221 -0.834155 5.53153
head 11.0869 -0.439856 3.03256
rclavicle 4.37326e-015 -9.54166e-015
rhumerus -30.705 3.57558 -83.9363
rradius 40.8391
rwrist 10.6966
rhand -24.0164 2.53292
rfingers 7.12502
rthumb 2.46155 -27.4326
lclavicle 4.37326e-015 -9.54166e-015
lhumerus -30.8998 22.6934 71.7325
lradius 25.2375
lwrist -1.25185
lhand -23.4504 23.217
lfingers 7.12502
lthumb 3.0081 53.1756
rfemur -28.7298 11.7564 13.9452
rtibia 38.3493
rfoot 9.5409 -7.16083
rtoes -3.69098
lfemur -19.2866 9.26246 -26.0298
ltibia 55.9688
lfoot -31.4912 11.7391
ltoes 2.41549
